  <svg
            viewBox="0 0 97 20"
            fill="#9E9FA5"
            xmlns="http://www.w3.org/2000/svg"
          >
            <path
              fill-rule="evenodd"
              clip-rule="evenodd"
              d="M82.1332 15.2925L89.3233 5.43122H92.7213L85.5311 15.2925H82.1332ZM77.9732 0.885925H96.89V19.829H77.9732V0.885925ZM80.6268 3.53954V17.1754H94.2364V3.53954H80.6268Z"
              fill="#9E9FA5"
            />
            <path
              fill-rule="evenodd"
              clip-rule="evenodd"
              d="M4.74038 12.9805L4.38133 12.7703L3.99599 12.6301L3.56686 12.5338L3.16398 12.4988H1.55258V18.8657H2.92756L3.53185 18.8219L4.031 18.7256L4.48642 18.5592L4.863 18.3402L5.17827 18.06L5.42351 17.6834L5.60744 17.2805L5.73878 16.8076L5.81762 16.2646L5.84387 15.6603L5.81762 15.1611L5.73878 14.6532L5.60744 14.1715L5.42351 13.7249L5.11701 13.322L4.74038 12.998V12.9805ZM3.68072 19.6451L3.01512 19.6889H0.54541V11.7018H2.78741L3.32162 11.7281L3.89966 11.7719L4.43388 11.8857L4.94184 12.0346L5.44976 12.2973L5.8351 12.6477L6.18544 13.0242L6.45693 13.4884L6.65834 13.9701L6.78096 14.5131L6.87728 15.0911L6.89482 15.6691L6.87728 16.2997L6.77219 16.8952L6.62333 17.4469L6.41315 17.9549L6.10659 18.4015L5.77384 18.7694L5.34467 19.1022L4.88053 19.3561L4.30249 19.5488L3.67195 19.6364L3.68072 19.6451Z"
              fill="#9E9FA5"
            />
            <path
              fill-rule="evenodd"
              clip-rule="evenodd"
              d="M10.1177 14.7057L9.72362 14.7495L9.39082 14.9159L9.11062 15.1086L8.90039 15.3801L8.73399 15.7129L8.6289 16.0632L8.57635 16.4485H11.554L11.5277 16.0719L11.4489 15.7129L11.3175 15.3801L11.0986 15.1173L10.8446 14.9072L10.5206 14.7408L10.1265 14.7057H10.1177ZM8.55011 17.1229V17.2367L8.56764 17.6046L8.66396 17.9461L8.78658 18.2789L8.95293 18.5942L9.19817 18.8306L9.46966 19.0233L9.7937 19.1372L10.1703 19.181L10.5294 19.1372L10.8534 19.0233L11.1074 18.8394L11.3263 18.5854L11.4752 18.2702L11.5716 17.9111H12.4736L12.3422 18.4453L12.132 18.8832L11.8255 19.2248L11.4927 19.4962L11.0898 19.6889L10.6169 19.794L10.0652 19.8466L9.53098 19.8028L9.07555 19.6714L8.67273 19.4612L8.33993 19.216L8.06844 18.8832L7.85821 18.4979L7.70934 18.0424L7.60425 17.552L7.578 17.0178L7.60425 16.4836L7.70934 15.9756L7.85821 15.5027L8.06844 15.1086L8.34869 14.7495L8.69897 14.443L9.1281 14.224L9.60105 14.1014L10.1528 14.0576L10.6607 14.1014L11.0898 14.2065L11.4577 14.3992L11.7642 14.6707L11.9919 14.9597L12.1933 15.3363L12.3422 15.7216L12.421 16.1595L12.4648 16.6237L12.4823 17.1054L8.54134 17.1229H8.55011Z"
              fill="#9E9FA5"
            />
            <path
              fill-rule="evenodd"
              clip-rule="evenodd"
              d="M17.1414 19.7065L17.1151 18.8394L16.8262 19.181L16.5371 19.4525L16.1956 19.6189L15.819 19.7415L15.3636 19.7853L14.8907 19.7415L14.4791 19.6189L14.1463 19.4525L13.8923 19.2073L13.6733 18.892L13.5595 18.5154L13.4719 18.0863L13.4369 17.5958V14.1453H14.409V17.5433L14.4178 17.8498L14.4615 18.1301L14.5579 18.3665L14.6629 18.5942L14.7943 18.7957L15.0045 18.927L15.2935 19.0234L15.6263 19.0409L16.0204 18.9883L16.3444 18.8745L16.5984 18.6906L16.7823 18.4453L16.9312 18.1563L17.0363 17.8323L17.0801 17.4557L17.1151 17.0791V14.1453H18.0347V18.2789L18.061 19.7065H17.1414Z"
              fill="#9E9FA5"
            />
            <path
              fill-rule="evenodd"
              clip-rule="evenodd"
              d="M21.1175 19.7852L20.7147 19.7589L20.4082 19.6451L20.1542 19.4699L19.9528 19.2247L19.8477 18.8919L19.8039 18.4891V14.8283H18.7529V14.1452H19.8039V13.0592L20.741 12.6651V14.1452H21.9408V14.8283H20.741V18.3665L20.7847 18.6117L20.8373 18.7956L20.9949 18.927L21.1876 18.9883L21.4766 19.0233L21.9846 18.9707V19.7064L21.5554 19.7589L21.1175 19.7852Z"
              fill="#9E9FA5"
            />
            <path
              fill-rule="evenodd"
              clip-rule="evenodd"
              d="M24.5945 19.829L24.1741 19.8115L23.7975 19.7415L23.4385 19.6101L23.1145 19.4174L22.8605 19.1722L22.659 18.8657L22.5364 18.4803L22.5014 18.0162H23.4385L23.4647 18.3577L23.5961 18.6467L23.7625 18.8657L23.999 19.0233L24.2967 19.1197L24.6383 19.1547L24.9273 19.1197L25.2163 19.0671L25.4703 18.9357L25.663 18.7256L25.8118 18.5066L25.8469 18.2176L25.8118 17.9724L25.7155 17.7447L25.5491 17.587L25.3565 17.4557L25.0061 17.3331L24.612 17.2105L24.253 17.1316L23.9639 17.0616L23.6662 16.939L23.386 16.8164L23.1407 16.65L22.9305 16.4573L22.7817 16.2471L22.6766 15.9581L22.6503 15.599L22.6766 15.2137L22.8254 14.8634L23.0356 14.5919L23.2896 14.3904L23.6137 14.1978L23.9639 14.1014L24.323 14.0314L24.6821 14.0139L25.085 14.0314L25.444 14.1014L25.7593 14.224L26.0658 14.3904L26.2935 14.6269L26.4862 14.8984L26.6088 15.2662L26.6526 15.6866H25.7155L25.663 15.345L25.5316 15.0648L25.2864 14.8634L25.0149 14.732L24.6558 14.6882L24.4018 14.7057L24.1479 14.7758L23.9202 14.8634L23.7188 15.0122L23.5961 15.2312L23.5524 15.5027L23.5961 15.7391L23.675 15.9143L23.8238 16.0544L24.0428 16.2033L24.4281 16.3522L24.7872 16.4398L25.1638 16.5361L25.4703 16.6324L25.7593 16.7463L26.0308 16.8601L26.276 17.0265L26.4862 17.2105L26.6351 17.4469L26.7489 17.7447L26.784 18.1037L26.7489 18.4891L26.6351 18.8219L26.4424 19.1109L26.2235 19.3211L25.9607 19.5313L25.6367 19.6539L25.2864 19.7765L24.9623 19.8115L24.5945 19.829Z"
              fill="#9E9FA5"
            />
            <path
              fill-rule="evenodd"
              clip-rule="evenodd"
              d="M30.0417 19.829L29.5075 19.7852L29.0258 19.6451L28.623 19.4524L28.2551 19.1984L27.9661 18.8656L27.7209 18.4715L27.5545 18.0074L27.4669 17.5345L27.4407 16.974L27.4669 16.4222L27.5545 15.9055L27.7209 15.4413L27.9661 15.0122L28.2551 14.6531L28.623 14.3729L29.0346 14.1452L29.5425 14.0138L30.0855 13.9613L30.5409 13.9963L30.9438 14.0751L31.3028 14.2328L31.6006 14.4517L31.8809 14.7144L32.0911 15.0648L32.2224 15.4676L32.3012 15.923H31.3642L31.3028 15.5464L31.1978 15.2312L31.0051 14.9947L30.7511 14.8283L30.4534 14.7144L30.0855 14.6794L29.6914 14.7144L29.3586 14.8283L29.0871 14.9947L28.8594 15.2312L28.6755 15.5289L28.5529 15.8617L28.4653 16.1858L28.4303 16.5711L28.404 16.9302L28.4303 17.2892L28.4653 17.6308L28.5704 17.9811L28.7018 18.2964L28.8769 18.5854L29.0871 18.7956L29.3586 18.997L29.6914 19.1109L30.0417 19.1546L30.4095 19.1109L30.7248 18.9707L31.0051 18.7956L31.1978 18.5328L31.3379 18.2088L31.3904 17.8235H32.3275L32.2399 18.2964L32.0911 18.7168L31.8809 19.0671L31.6006 19.321L31.2941 19.54L30.9087 19.6889L30.4971 19.8115L30.0417 19.829Z"
              fill="#9E9FA5"
            />
            <path
              fill-rule="evenodd"
              clip-rule="evenodd"
              d="M36.9078 19.6889V16.2821L36.8728 15.9931L36.8378 15.6953L36.7589 15.4501L36.6538 15.2311L36.4874 15.0385L36.2685 14.8896L35.997 14.8108L35.6642 14.802L35.2614 14.837L34.9811 14.9421L34.7009 15.1348L34.5169 15.3713L34.3681 15.6953L34.263 16.0193L34.2017 16.3784L34.1666 16.755V19.6889H33.2558V11.7018H34.1666V14.9859L34.4469 14.6356L34.7446 14.3729L35.095 14.1802L35.4803 14.0751L35.9182 14.0401L36.3999 14.0751L36.8115 14.1802L37.1356 14.3729L37.407 14.6093L37.5997 14.9246L37.7223 15.2837L37.8099 15.7391L37.8274 16.2295V19.6889H36.9078Z"
              fill="#9E9FA5"
            />
            <path
              fill-rule="evenodd"
              clip-rule="evenodd"
              d="M41.3568 14.7057L40.9715 14.7495L40.6387 14.9159L40.3759 15.1086L40.1745 15.3801L39.9819 15.7129L39.8768 16.0632L39.8067 16.4485H42.7581L42.7231 16.0719L42.6442 15.7129L42.5128 15.3801L42.3026 15.1173L42.0487 14.9072L41.7334 14.7408L41.3481 14.7057H41.3568ZM39.8067 17.1229V17.6046L39.9118 17.9461L40.0344 18.2789L40.2008 18.5942L40.4372 18.8306L40.7 19.0233L41.0153 19.1372L41.3831 19.181L41.7421 19.1372L42.0575 19.0233L42.3114 18.8394L42.5216 18.5854L42.6705 18.2701L42.7668 17.9111H43.6426L43.5112 18.4453L43.2923 18.8832L43.012 19.2247L42.6705 19.4962L42.2676 19.6889L41.8122 19.794L41.3042 19.8378L40.7876 19.794L40.3321 19.6626L39.9468 19.4525L39.6052 19.2072L39.3337 18.8744L39.1236 18.4891L38.9747 18.0337L38.8608 17.5433L38.8346 17.009L38.8608 16.4748L38.9747 15.9668L39.1236 15.4939L39.3337 15.0998L39.614 14.7408L39.9643 14.4342L40.3847 14.2153L40.8489 14.0927L41.3919 14.0489L41.9085 14.0927L42.3289 14.1978L42.688 14.3904L42.977 14.6619L43.2047 14.9509L43.3974 15.3275L43.5462 15.7129L43.6251 16.1508L43.6689 16.6149L43.6952 17.0966L39.8155 17.1229H39.8067Z"
              fill="#9E9FA5"
            />
            <path
              fill-rule="evenodd"
              clip-rule="evenodd"
              d="M49.8781 15.9493H48.2404V18.8744H49.8606L50.1758 18.8569L50.4824 18.8131L50.7539 18.7343L51.0166 18.6554L51.2268 18.5153L51.4282 18.3226L51.5859 18.0862L51.6647 17.8059L51.7084 17.4294L51.6647 17.044L51.5596 16.7112L51.3756 16.4397L51.1742 16.247L50.9027 16.1157L50.5875 16.0193L50.2371 15.9843L49.8781 15.958V15.9493ZM49.8781 12.5162H48.2404V15.1874H49.7205L50.0445 15.1698L50.3773 15.1261L50.64 15.0385L50.894 14.8808L51.0779 14.7144L51.2618 14.478L51.3494 14.1539L51.3844 13.8124L51.3494 13.4621L51.2355 13.1468L51.0516 12.9366L50.8152 12.7527L50.5524 12.6126L50.2284 12.5425L49.8869 12.5162H49.8781ZM49.8606 19.6889H47.2595V11.7018H49.9832L50.3861 11.728L50.7626 11.7981L51.1567 11.9207L51.4895 12.0696L51.7961 12.2798L52.0588 12.5425L52.269 12.8753L52.3916 13.2519L52.4354 13.7073L52.3916 14.1802L52.269 14.5656L52.05 14.8984L51.7435 15.1611L51.3932 15.3625L50.9641 15.5114L51.3932 15.6165L51.7873 15.7741L52.1201 15.9931L52.374 16.2646L52.5755 16.5798L52.6981 17.0002L52.7419 17.4731L52.6981 17.9723L52.5755 18.4015L52.374 18.743L52.1201 19.0233L51.8398 19.251L51.472 19.4349L51.0867 19.5575L50.6926 19.6363L50.2897 19.6801H49.8606V19.6889Z"
              fill="#9E9FA5"
            />
            <path
              fill-rule="evenodd"
              clip-rule="evenodd"
              d="M56.5778 16.8777H56.3064L56.0436 16.9039L55.7371 16.9214L55.4481 17.0003L55.1766 17.0966L54.9227 17.2017L54.7124 17.3506L54.5461 17.552L54.4322 17.8147L54.3884 18.1037L54.4322 18.4278L54.5548 18.673L54.765 18.9007L55.0102 19.0233L55.2817 19.1459H55.5707H55.9473L56.2538 19.0233L56.4728 18.9007L56.6829 18.708L56.8143 18.4628L56.9369 18.2001L57.007 17.9111L57.0508 17.587L57.0683 17.263V16.9127H56.9019L56.7442 16.8864H56.5954L56.5778 16.8777ZM57.2522 19.6889L57.1559 18.9095L56.8493 19.251L56.5341 19.5138L56.175 19.6802L55.7809 19.8028L55.3255 19.8203L54.9664 19.8028L54.6073 19.7152L54.2921 19.5926L54.0206 19.4262L53.8016 19.1897L53.6002 18.9095L53.4951 18.5504L53.4514 18.1563L53.4951 17.7359L53.6177 17.3856L53.8104 17.1054L54.0469 16.8689L54.3358 16.6762L54.6599 16.5361L55.019 16.431L55.3956 16.3522L55.7809 16.3084L56.1575 16.2909H56.5166L56.7881 16.3084H57.042V15.9931L57.0245 15.6341L56.9457 15.3538L56.8319 15.1173L56.6829 14.9247L56.4553 14.767L56.1925 14.6794L55.8422 14.6619L55.562 14.6794L55.2817 14.732L55.0978 14.8721L54.9051 15.0648L54.8 15.3013L54.73 15.6341H53.7929L53.8717 15.2312L54.0118 14.8721L54.2045 14.5919L54.4585 14.3817L54.7475 14.2153L55.0803 14.1102L55.4481 14.0401L55.8072 14.0139L56.2889 14.0401L56.718 14.1365L57.0596 14.2591L57.3398 14.478L57.55 14.732L57.7339 15.0911L57.8127 15.4939L57.8565 16.0106V18.0775L57.8828 18.6117L57.9178 19.0759L57.9528 19.4525L58.0229 19.6977H57.226L57.2522 19.6889Z"
              fill="#9E9FA5"
            />
            <path
              fill-rule="evenodd"
              clip-rule="evenodd"
              d="M62.866 19.6889V16.2909L62.8397 16.0019L62.8047 15.7041L62.7083 15.4677L62.6032 15.2487L62.4631 15.0473L62.2529 14.9159L61.9639 14.8283L61.6311 14.8108L61.2721 14.8459L60.9655 14.9597L60.7115 15.1349L60.5364 15.345L60.3787 15.6253L60.2824 15.9231L60.186 16.2383L60.1686 16.5799L60.1335 16.9127V19.6889H59.2139V15.2049L59.1877 14.7758V14.443L59.1702 14.1277H60.1073L60.116 15.0122L60.3875 14.6795L60.7115 14.4167L61.0618 14.1978L61.4385 14.1014L61.8938 14.0576L62.3755 14.1014L62.7871 14.1978L63.1199 14.3904L63.3827 14.6269L63.5928 14.9422L63.733 15.3013L63.8118 15.7567L63.8381 16.2383V19.6889H62.866Z"
              fill="#9E9FA5"
            />
            <path
              fill-rule="evenodd"
              clip-rule="evenodd"
              d="M68.7162 19.6889L66.0976 16.5536L68.5235 14.1014H69.7233L67.2186 16.501L69.9423 19.6801H68.7249L68.7162 19.6889ZM65.1167 19.6889V11.7018H66.045V19.6889H65.1167Z"
              fill="#9E9FA5"
            />
          </svg>