<?xml version="1.0" encoding="UTF-8"?>
<svg id="Layer_2" data-name="Layer 2" xmlns="http://www.w3.org/2000/svg" viewBox="0 0 826.43 210.36">
  <defs>
    <style>
      .cls-1 {
        fill: #0f1823;
      }

      .cls-2 {
        fill: #3f8cfd;
      }
    </style>
  </defs>
  <g id="Layer_1-2" data-name="Layer 1">
    <g>
      <g>
        <path class="cls-1" d="m0,117.48V1.82h89.19v24.62H27.79v20.82h40.55v23.79H27.79v21.81h62.04v24.62H0Z"/>
        <path class="cls-1" d="m107.77,117.48V1.82h57.84c7.76,0,14.65,1.57,20.68,4.71,6.03,3.14,10.74,7.49,14.14,13.05,3.39,5.56,5.09,11.93,5.09,19.09s-1.94,13.77-5.82,19.5c-3.88,5.73-9,10.08-15.35,13.05l24.72,46.27h-31.02l-21.33-42.13h-21.17v42.13h-27.79Zm27.79-65.27h27.47c4.31,0,7.78-1.21,10.42-3.64,2.64-2.42,3.96-5.56,3.96-9.42s-1.32-6.99-3.96-9.42c-2.64-2.42-6.11-3.63-10.42-3.63h-27.47v26.11Z"/>
        <path class="cls-1" d="m221.35,117.48V1.82h27.79v115.66h-27.79Z"/>
        <path class="cls-1" d="m326.21,119.13c-8.62,0-16.62-1.52-23.99-4.54-7.38-3.03-13.81-7.24-19.31-12.64-5.49-5.4-9.78-11.7-12.85-18.92-3.07-7.21-4.6-15.01-4.6-23.38s1.53-16.33,4.6-23.55c3.07-7.21,7.38-13.52,12.93-18.92,5.55-5.4,12.01-9.61,19.39-12.64,7.38-3.03,15.32-4.54,23.83-4.54,6.25,0,12.39.94,18.42,2.81,6.03,1.88,11.61,4.49,16.72,7.85,5.11,3.36,9.4,7.35,12.85,11.98l-18.74,18.84c-3.99-5.18-8.43-9.03-13.33-11.57-4.9-2.53-10.21-3.8-15.91-3.8-4.52,0-8.75.85-12.68,2.56-3.93,1.71-7.35,4.05-10.26,7.02s-5.17,6.5-6.79,10.58c-1.62,4.08-2.42,8.54-2.42,13.38s.83,9.12,2.5,13.14c1.67,4.02,3.98,7.55,6.95,10.58,2.96,3.03,6.46,5.37,10.5,7.02,4.04,1.65,8.43,2.48,13.17,2.48,5.49,0,10.58-1.21,15.27-3.63,4.69-2.42,8.91-6,12.68-10.74l18.26,18.34c-3.45,4.52-7.7,8.46-12.76,11.81-5.06,3.36-10.56,5.95-16.48,7.77-5.92,1.82-11.9,2.73-17.93,2.73Z"/>
        <path class="cls-1" d="m386.8,117.48V1.82h27.79v44.45h46.53V1.82h27.79v115.66h-27.79v-45.27h-46.53v45.27h-27.79Z"/>
        <path class="cls-1" d="m550.95,119.13c-9.16,0-18.2-1.71-27.14-5.12-8.94-3.41-16.91-8.15-23.91-14.21l15.51-20.66c6.89,5.73,13.25,9.83,19.07,12.31,5.82,2.48,12.01,3.72,18.58,3.72,4.31,0,7.97-.44,10.99-1.32,3.01-.88,5.33-2.17,6.95-3.88,1.62-1.71,2.42-3.72,2.42-6.03,0-3.19-1.19-5.67-3.55-7.44-2.37-1.76-6.41-3.14-12.12-4.13l-24.88-4.46c-9.16-1.65-16.21-5.23-21.17-10.74-4.96-5.51-7.43-12.5-7.43-20.98,0-7.49,1.86-13.93,5.57-19.33,3.72-5.4,9.05-9.53,16-12.39,6.95-2.86,15.21-4.29,24.8-4.29,8.4,0,16.86,1.46,25.37,4.38,8.51,2.92,15.89,6.97,22.14,12.14l-14.7,20.98c-11.63-9.14-23.21-13.71-34.74-13.71-3.77,0-7.03.41-9.77,1.24s-4.85,1.98-6.3,3.47c-1.45,1.49-2.18,3.28-2.18,5.37,0,2.87,1.05,5.07,3.15,6.61,2.1,1.54,5.52,2.75,10.26,3.63l23.43,3.97c10.88,1.76,19.15,5.45,24.8,11.07,5.66,5.62,8.48,12.89,8.48,21.81,0,7.82-1.99,14.57-5.98,20.24-3.99,5.67-9.69,10.05-17.13,13.14-7.43,3.08-16.27,4.63-26.5,4.63Z"/>
        <path class="cls-1" d="m642.73,92.87v-21.81h40.55v-23.8h-40.55v-20.82h61.4V1.82h-89.19v115.67h2.09l3.83-13.88s-3.5-13.7,9.02-17.76c1.19-.38,2.46-.31,3.64.09,2.56.86,4.63,4.33,2.6,12.21-4.99,19.34-4.02,15.15-4.99,19.34h73.64v-24.62h-62.04Z"/>
        <path class="cls-1" d="m722.7,117.48V1.82h26.17l51.38,67.08V1.82h26.17v115.66h-24.56l-53-69.73v69.73h-26.17Z"/>
      </g>
      <g>
        <path class="cls-2" d="m660.48,195.86l-.35-.06c-9.64-3.66-19.64-4.89-29.99-3.68-10.35,1.21-19.17,4.13-26.45,8.75,14.64-51.8,24.58-87.79,29.81-107.95.16-1.01-.22-1.9-1.12-2.69-.91-.79-1.99-.82-3.25-.09-2.05,1.53-3.44,3.17-4.19,4.92-.75,1.75-1.06,3.35-.94,4.8.12,1.45.45,2.29,1,2.54-2.01,7.25-3.88,14.05-5.61,20.41-3.82,14.01-7.47,27.3-10.95,39.88-3.48,12.58-7.65,27.34-12.49,44.29-.16.64-.05,1.27.32,1.87.37.6.95,1.06,1.74,1.36.79.3,1.59.17,2.42-.39,8.03-6.24,17.15-10.23,27.36-11.98,10.21-1.75,20.52-.72,30.91,3.11,1.18.36,2.13.19,2.83-.51.71-.7,1.03-1.5.97-2.38-.06-.89-.74-1.61-2.04-2.17Z"/>
        <path class="cls-2" d="m825.14,153c-.61-.76-1.55-1.07-2.8-.91h.12c-9.01,1.85-17.27,4.18-24.77,6.97-7.5,2.8-13.71,5.63-18.63,8.48-.35-1.33-1.07-2.63-2.15-3.89-1.08-1.27-2.23-2.36-3.45-3.29-1.1-.88-2.03-1.75-2.77-2.6.24-.36.68-.77,1.33-1.24.65-.46,1.13-.77,1.45-.94.24-.04.69-.04,1.36,0,.67.04,1.55-.03,2.63-.21,1.08-.18,2.07-.6,2.95-1.27.89-.66,1.41-1.64,1.56-2.93.04-.64-.23-1.27-.8-1.87-.57-.6-1.29-.87-2.15-.78-2.4.24-4.83.88-7.29,1.9s-4.48,2.55-6.05,4.56c-.31.5-.54.99-.69,1.46-3.64,2.65-7.89,4.55-12.77,5.69-5.25,1.23-9.38,1.75-12.37,1.57-2.99-.18-5.4-.72-7.23-1.63-1.83-.91-3.02-2.48-3.57-4.74-.43-2.37-.61-4.23-.53-5.55.04-1.01-.04-1.84-.24-2.51-.2-.66-.85-1.14-1.95-1.42-2.05-.32-4.18.67-6.41,2.99-2.22,2.32-4.32,4.84-6.29,7.58l1.36-4.65c.24-.81.1-1.52-.41-2.14-.51-.62-1.23-.96-2.16-1-.92-.04-1.7.38-2.33,1.27-.63,1.05-1.1,1.85-1.42,2.42-.32.56-.49,1.03-.53,1.39,0,.03,0,.05,0,.08-.24.08-.49.2-.74.34-11.41,8.61-19.29,14.08-23.62,16.39-4.33,2.31-7.81,3.69-10.45,4.14-2.87.36-4.45-1.05-4.72-4.23-.24-1.97-.08-4,.47-6.1.55-2.09,1.2-4.17,1.95-6.22.59-1.73,1.1-3.42,1.53-5.07.16-.64,0-1.25-.44-1.81-.45-.56-1.13-.85-2.04-.85s-1.48.12-1.71.36c-1.34-1.89-3.55-2.54-6.64-1.93-3.09.6-5.87,1.85-8.35,3.74-3.78,2.9-7.11,6.76-10.01,11.59-2.89,4.83-4.12,8.88-3.69,12.14.55,2.45,1.81,3.59,3.78,3.41,1.97-.18,4.03-1.04,6.2-2.57,2.16-1.53,4.21-3.2,6.14-5.01,2.79-2.74,5.2-5.23,7.2-7.49-.24.69-.37,2.58-.41,5.68.08,2.38.68,4.48,1.8,6.31,1.12,1.83,2.96,2.95,5.52,3.35,4.21.32,9.84-1.48,16.88-5.4,5.83-3.25,12.12-7.49,18.84-12.68-.13.36-.25.72-.39,1.12-1.18,3.5-3.48,10.14-6.91,19.92-.24.88-.08,1.66.47,2.32.55.66,1.33,1.03,2.33,1.09,1,.06,1.82-.41,2.45-1.42,2.2-4.23,5.42-9.92,9.65-17.09,4.23-7.16,7.41-11.89,9.53-14.19.08,2.62.85,5.11,2.3,7.49,1.46,2.38,3.99,3.98,7.62,4.83,5.23,1.17,10.58,1.28,16.03.33,5.45-.94,10.01-2.37,13.67-4.29,1.8-.94,3.23-1.73,4.29-2.37.76.86,1.6,1.64,2.53,2.34,1.3.97,2.36,1.98,3.19,3.05.83,1.07,1.3,2.3,1.42,3.71-1.89,1.17-4.17,2.85-6.85,5.04-2.68,2.19-4.82,4.53-6.43,7-1.61,2.48-1.79,4.8-.53,6.97,1.5,1.89,3.72,2.14,6.67.75,2.95-1.39,5.68-3.62,8.18-6.7,2.5-3.08,4.04-6.45,4.63-10.11,6.41-3.9,13.52-7.25,21.31-10.02,7.79-2.78,15.47-4.91,23.02-6.4,1.22-.32,1.9-.93,2.04-1.81.14-.88-.1-1.71-.71-2.48Zm-171.36,16.09c-3.11,2.88-5.71,5-7.79,6.37-.35.24-.54.36-.56.36s.05-.36.21-1.09c.43-1.81,1.41-4.08,2.92-6.79,1.51-2.72,3.49-5.28,5.93-7.7,2.4-2.21,4.29-3.53,5.67-3.95,1.38-.42,2.42-.47,3.13-.15.71.32,1.18.62,1.42.91-4.17,5.15-7.81,9.17-10.92,12.04Zm114.62,13.58c-1.63,1.59-3,2.61-4.1,3.05,1.22-1.09,3.58-3.26,7.08-6.52-.35.72-1.35,1.88-2.98,3.47Z"/>
      </g>
    </g>
  </g>
</svg>