  <svg
            viewBox="0 0 89 39"
            fill="#9E9FA5"
            xmlns="http://www.w3.org/2000/svg"
          >
            <path
              d="M34.4397 23.338H32.3203V25.8515H34.4397V30.134C34.4397 32.6913 36.2176 33.9437 38.442 33.9437C39.0551 33.9612 39.6769 33.8911 40.2637 33.716V31.1762C39.8871 31.2988 39.5017 31.3601 39.1076 31.3426C37.8553 31.3426 37.3123 30.8697 37.3123 29.5823V25.8602H39.6156V23.3467H37.3123V19.1517L34.4572 21.5864L34.4397 23.338ZM8.50786 29.7662C8.50786 30.6245 7.7109 31.1937 6.51108 31.1937C5.21493 31.1674 4.00636 30.5106 3.28822 29.4334L0.967407 31.3951C2.03586 33.0329 4.02388 34.0575 6.38849 34.0575C9.46248 34.0575 11.5818 32.2359 11.6256 29.5735C11.6256 27.3315 10.2682 25.9565 8.0875 25.1508L6.89643 24.7129C5.31127 24.1437 4.55811 23.7496 4.55811 22.8475C4.55811 21.9455 5.5127 21.5339 6.54612 21.5339C7.57954 21.5251 8.56042 21.998 9.2085 22.8125L11.2228 20.7457C10.0405 19.397 8.32397 18.6438 6.52862 18.6876C3.63854 18.6876 1.50162 20.3428 1.50162 23.1541C1.50162 25.1859 2.78026 26.5608 5.17114 27.4103L6.42353 27.8482C7.88608 28.3562 8.49912 28.9342 8.49912 29.7487M9.97919 11.077C9.97919 12.0229 9.20849 12.7848 8.26264 12.7848C8.2101 12.7848 8.16632 12.7848 8.11378 12.7761H5.10109V9.38679H8.14005C9.08589 9.30797 9.91788 10.0086 9.9967 10.9632C9.9967 11.007 10.0055 11.0595 10.0055 11.1033M8.97202 5.15677C8.97202 6.07634 8.21886 6.812 7.30805 6.812H5.09232V3.47528H7.21172C8.14005 3.43149 8.92823 4.15839 8.97202 5.09547C8.97202 5.11299 8.97202 5.13926 8.97202 5.15677ZM12.9481 11.2084C12.9743 9.70207 12.1073 8.33586 10.7323 7.71405C11.4943 7.0397 11.9234 6.06759 11.9059 5.05168C11.8971 2.65204 9.95292 0.707812 7.54452 0.71657H2.06213V15.5873H8.35899C10.9951 15.5873 12.9656 13.6869 12.9656 11.2084M13.999 21.5864V23.3292H11.8709V25.8427H13.9903V30.1253C13.9903 32.6825 15.7681 33.9349 17.9838 33.9349C18.5969 33.9524 19.2187 33.8736 19.8142 33.7072V31.1674C19.4376 31.2988 19.0347 31.3689 18.6406 31.3601C17.4058 31.3601 16.8628 30.8522 16.8628 29.5735V25.8515H19.8142V23.338H16.8628V19.1517L13.999 21.5864ZM18.772 1.9339C18.7808 1.05812 18.0802 0.339985 17.2044 0.331227C16.3286 0.32247 15.6104 1.02309 15.6017 1.89887C15.5929 2.77465 16.2936 3.49279 17.1693 3.50155H17.1956C18.0714 3.50155 18.7632 2.79217 18.772 1.9339ZM23.6939 1.9339C23.7026 1.05812 22.9933 0.348743 22.1263 0.348743C21.2505 0.348743 20.5411 1.04937 20.5411 1.91639C20.5411 2.78341 21.2417 3.50155 22.1087 3.50155H22.1263C22.9933 3.50155 23.6851 2.79217 23.6939 1.9339ZM22.2664 10.3502C22.2664 11.9616 21.1804 13.1351 19.6653 13.1351C18.1502 13.1351 17.038 11.9616 17.038 10.5078C17.038 10.4552 17.038 10.4027 17.0467 10.3502C16.9591 8.90511 18.0539 7.66151 19.4989 7.57393C19.5515 7.57393 19.6128 7.56517 19.6653 7.56517C21.1804 7.56517 22.2664 8.73872 22.2664 10.3502ZM25.1827 10.3502C25.2178 7.31119 22.7743 4.81522 19.7354 4.78019C16.6964 4.74516 14.2004 7.18858 14.1654 10.2275C14.1304 13.2665 16.5738 15.7625 19.6128 15.7975H19.6565C22.678 15.815 25.1477 13.3891 25.1652 10.3677V10.3326M26.0235 31.4039C24.7886 31.4039 24.2456 30.4843 24.2456 28.9079V23.3292H21.3906V29.4071C21.3906 32.1921 22.8181 34.04 25.3228 34.04C26.4526 34.0838 27.5386 33.5496 28.1779 32.6125V33.8035H31.0329V23.338H28.1779V28.4438C28.1779 30.4756 27.3021 31.4214 26.0147 31.4214M31.9788 7.79287C32.4254 7.79287 32.8633 7.87169 33.2749 8.02933V5.11299C32.9684 5.02541 32.6444 4.98162 32.3203 4.98162C31.1643 4.98162 30.1309 5.69976 29.7193 6.78573V5.11299H26.8642V15.5786H29.7193V10.5691C29.7193 8.85257 30.6213 7.78412 31.9788 7.78412M36.9707 7.88045C36.9707 7.44256 37.4436 7.23237 38.083 7.23237C38.8624 7.24989 39.6068 7.55641 40.1761 8.09064L41.7875 6.35659C40.8592 5.36696 39.5543 4.82398 38.2056 4.86777C36.0074 4.86777 34.3959 6.14641 34.3959 8.05561C34.3521 9.68456 35.3155 10.9457 37.2247 11.4449L37.9603 11.6551C39.0901 11.9703 39.5105 12.1543 39.5105 12.6097C39.5105 13.0651 38.9412 13.3628 38.2143 13.3628C37.2772 13.3979 36.3839 12.9687 35.8322 12.2156L33.9318 13.8445C34.9039 15.1232 36.4277 15.85 38.0304 15.7975C40.3775 15.7975 42.094 14.4751 42.094 12.4695C42.094 10.753 41.0431 9.57946 39.204 9.054L38.2231 8.78251C37.1984 8.4935 36.9707 8.30958 36.9707 7.90672M42.313 21.5864V23.3292H40.6402V25.8427H42.313V30.1253C42.313 32.6825 44.0908 33.9349 46.3153 33.9349C46.9283 33.9524 47.5414 33.8736 48.1369 33.7072V31.1674C47.7603 31.2901 47.3575 31.3514 46.9634 31.3338C45.7285 31.3338 45.1855 30.8609 45.1855 29.5735V25.8515H48.1369V23.338H45.1855V19.1517L42.313 21.5864ZM50.8781 9.07151H45.9825C46.254 7.79287 47.445 7.24989 48.5223 7.24989C49.6608 7.17983 50.6679 7.95927 50.9044 9.07151M53.7069 11.042C53.7419 10.718 53.7507 10.3852 53.7507 10.0611C53.7507 6.67188 51.3423 4.91156 48.6011 4.91156C45.6497 4.82398 43.18 7.1448 43.0924 10.0962V10.3502C43.0924 13.6781 45.5271 15.8238 48.6449 15.8238C50.5541 15.9026 52.3757 15.0181 53.5054 13.4767L51.3598 11.8828C50.738 12.7498 49.7221 13.249 48.6536 13.1964C47.2699 13.1964 46.035 12.417 45.8686 11.0157L53.7069 11.042ZM57.3151 28.435C57.2976 29.8976 56.0978 31.0711 54.6352 31.0536C53.1727 31.0361 51.9991 29.8363 52.0166 28.3737C52.0341 26.9199 53.2252 25.7551 54.679 25.7551C56.1153 25.7288 57.2976 26.8761 57.3239 28.3036C57.3151 28.3474 57.3151 28.3912 57.3151 28.435ZM59.9512 33.0153V23.338H57.0961V24.5115C56.378 23.5744 55.257 23.0402 54.0835 23.084C51.3598 23.084 49.1441 25.4311 49.1441 28.3825C49.1441 31.3338 51.3685 33.6547 54.0835 33.6547C55.2482 33.6984 56.3693 33.1905 57.0961 32.2709V32.9803C57.0961 34.6618 56.0102 35.8353 54.3112 35.8353C53.0938 35.8353 51.929 35.3712 51.0445 34.5392L49.4593 36.7286C50.6504 37.8584 52.5333 38.4014 54.3374 38.4014C57.5428 38.4014 59.9424 36.79 59.9424 32.9978M69.4008 28.5839C69.4008 30.2216 68.3324 31.4389 66.7648 31.4389C65.1971 31.4389 64.1287 30.2216 64.1287 28.5839C64.1287 26.9462 65.1971 25.7288 66.7648 25.7288C68.3324 25.7288 69.4008 26.9462 69.4008 28.5839ZM69.1732 33.8123H72.0282V23.3467H69.1732V24.5203C68.4463 23.6007 67.334 23.0665 66.1605 23.0928C63.3755 23.0928 61.2386 25.5887 61.2386 28.5576C61.2386 31.5265 63.3755 34.0225 66.1605 34.0225C67.334 34.0488 68.4463 33.5145 69.1732 32.595V33.8123ZM78.5353 26.0266C78.9819 26.0354 79.4198 26.1054 79.8314 26.2543V23.338C79.5249 23.2504 79.2008 23.2066 78.8768 23.2154C77.7208 23.2241 76.6873 23.9335 76.2757 25.0195V23.338H73.4207V33.8035H76.2757V28.8116C76.2757 27.0951 77.1778 26.0266 78.544 26.0266M85.5765 29.5998V25.8515H88.5279V23.338H85.5765V19.1517L82.7215 21.5864V23.3292H80.6108V25.8427H82.7215V30.1253C82.7215 32.6825 84.508 33.9349 86.7238 33.9349C87.3368 33.9524 87.9499 33.8736 88.5454 33.7072V31.1674C88.1688 31.2988 87.7747 31.3689 87.3719 31.3601C86.137 31.3601 85.5853 30.8522 85.5853 29.5735"
              fill="#9E9FA5"
            />
          </svg>