 <svg
            viewBox="0 0 79 37"
            fill="#9E9FA5"
            xmlns="http://www.w3.org/2000/svg"
          >
            <path
              fill-rule="evenodd"
              clip-rule="evenodd"
              d="M66.5505 23.7961V8.92535L51.6272 14.2939V18.0072L56.5754 16.2118V27.3693L66.5505 23.8049"
              fill="#9E9FA5"
            />
            <path
              fill-rule="evenodd"
              clip-rule="evenodd"
              d="M60.858 0.272644C54.7188 0.272644 49.2276 3.34663 45.9522 8.01454L48.5883 9.85368C51.277 6.02652 55.7434 3.46048 60.7792 3.46048C68.959 3.46048 75.4573 10.1602 75.4573 18.3663C75.4573 26.5723 68.959 33.272 60.7792 33.272C55.7347 33.272 51.3032 30.6885 48.6146 26.8526L45.9347 28.7267C49.2101 33.4034 54.5349 36.4599 60.6741 36.4599C70.7105 36.4599 78.8115 28.3326 78.8115 18.34C78.8115 8.34734 70.8507 0.272644 60.858 0.272644Z"
              fill="#9E9FA5"
            />
            <path
              d="M37.7111 23.8311C37.0893 23.8311 36.2485 23.7961 35.8019 23.726V12.8576C36.2836 12.8313 36.9842 12.8138 37.7111 12.8138C41.004 12.8138 42.6067 14.6267 42.6067 18.3575C42.6067 22.0883 41.0478 23.8311 37.7111 23.8311ZM37.9213 9.9938C36.1522 9.9938 34.9874 10.0201 34.0416 10.0464C33.4548 10.0639 32.9994 10.0726 32.5615 10.0726H32.4827V26.5898L33.1395 26.6074C34.4444 26.6424 35.9157 26.6774 37.4045 26.6774C43.1059 26.6774 46.1186 23.7523 46.1186 18.2261C46.1186 12.8401 43.2898 9.9938 37.9388 9.9938"
              fill="#9E9FA5"
            />
            <path
              d="M5.31599 20.4331L6.92742 15.3623C7.14637 14.688 7.36531 13.8998 7.53171 13.1992C7.68935 13.7947 7.89953 14.5304 8.15351 15.3711L9.77371 20.4244H5.31599V20.4331ZM9.80875 10.1339L9.79121 10.0814H5.64879L0 26.6336H3.34549L4.43144 23.2268H10.6758L11.7617 26.6336H15.4312L9.80875 10.1339Z"
              fill="#9E9FA5"
            />
            <path
              d="M20.7384 12.8313C20.9924 12.8313 21.8419 12.8051 23.0943 12.8051C24.9247 12.8051 25.8092 13.5845 25.8092 15.1784C25.8092 16.7723 24.8634 17.5518 22.998 17.5518H20.7384V12.8313ZM26.7288 20.9323C26.4748 20.5032 26.177 20.0653 25.9406 19.7325C28.0425 18.9881 29.3036 17.3066 29.3036 15.0383C29.3036 11.7366 27.2367 9.9938 23.322 9.9938C21.588 9.9938 20.0116 10.0288 18.8555 10.0551C18.26 10.0639 17.7871 10.0814 17.5156 10.0814H17.4368V26.6336H20.7472V20.3193H22.5776L26.3084 26.6336H30.2845L26.7375 20.9411"
              fill="#9E9FA5"
            />
          </svg>