<?xml version="1.0" encoding="utf-8"?>
<!-- Generator: Adobe Illustrator 27.8.1, SVG Export Plug-In . SVG Version: 6.00 Build 0)  -->
<svg version="1.1" id="Layer_1" xmlns="http://www.w3.org/2000/svg" xmlns:xlink="http://www.w3.org/1999/xlink" x="0px" y="0px"
	 viewBox="0 0 48 48" style="enable-background:new 0 0 48 48;" xml:space="preserve">
<style type="text/css">
	.st0{fill:none;}
	.st1{fill:#3F8CFD;}
	.st2{fill:none;stroke:#FFFFFF;stroke-width:1.5;stroke-linecap:round;stroke-linejoin:round;}
</style>
<rect class="st0" width="48" height="48"/>
<rect class="st1" width="48" height="48"/>
<circle class="st1" cx="24" cy="24" r="24"/>
<g>
	<path class="st2" d="M21.2,16.7h-6.7c-0.5,0-0.9,0.3-0.9,0.8v15.6c0,0.4,0.4,0.8,0.9,0.8h18.2c0.5,0,0.9-0.3,0.9-0.8v-7.4"/>
	<path class="st2" d="M30.3,21v3.7l6.1-6.3l-6-6.2v3.3c0,0-3.9,0.2-6.7,2.8s-2.7,7-2.7,7s2.3-2.7,5.1-3.7C27.7,20.9,30.3,21,30.3,21
		z"/>
</g>
</svg>
