<?xml version="1.0" encoding="utf-8"?>
<!-- Generator: Adobe Illustrator 27.8.1, SVG Export Plug-In . SVG Version: 6.00 Build 0)  -->
<svg version="1.1" id="Layer_1" xmlns="http://www.w3.org/2000/svg" xmlns:xlink="http://www.w3.org/1999/xlink" x="0px" y="0px"
	 viewBox="0 0 48 48" style="enable-background:new 0 0 48 48;" xml:space="preserve">
<style type="text/css">
	.st0{fill:#3F8CFD;}
	.st1{fill:none;stroke:#FFFFFF;stroke-width:1.2;stroke-linecap:round;stroke-linejoin:round;}
</style>
<rect class="st0" width="48" height="48"/>
<rect class="st0" width="48" height="48"/>
<circle class="st0" cx="24" cy="24" r="24"/>
<g>
	<g>
		<polygon class="st1" points="17.4,29 10.4,29 8.8,33.7 18.9,33.7 		"/>
		<polygon class="st1" points="27.5,29 20.5,29 18.9,33.7 29.1,33.7 		"/>
		<polygon class="st1" points="37.6,29 30.6,29 29.1,33.7 39.2,33.7 		"/>
	</g>
	<g>
		<polygon class="st1" points="22.5,24.3 15.4,24.3 13.9,29 24,29 		"/>
		<polygon class="st1" points="32.6,24.3 25.5,24.3 24,29 34.1,29 		"/>
	</g>
	<polygon class="st1" points="27.5,19.6 20.5,19.6 18.9,24.3 29.1,24.3 	"/>
	<line class="st1" x1="24.1" y1="12.3" x2="24.1" y2="15.8"/>
	<line class="st1" x1="29.9" y1="13" x2="28.7" y2="16.2"/>
	<line class="st1" x1="34.9" y1="14.4" x2="32.9" y2="17.2"/>
	<line class="st1" x1="18.2" y1="13" x2="19.4" y2="16.2"/>
	<line class="st1" x1="13.2" y1="14.4" x2="15.2" y2="17.2"/>
</g>
</svg>
