<?xml version="1.0" encoding="utf-8"?>
<!-- Generator: Adobe Illustrator 27.8.1, SVG Export Plug-In . SVG Version: 6.00 Build 0)  -->
<svg version="1.1" id="Layer_1" xmlns="http://www.w3.org/2000/svg" xmlns:xlink="http://www.w3.org/1999/xlink" x="0px" y="0px"
	 viewBox="0 0 48 48" style="enable-background:new 0 0 48 48;" xml:space="preserve">
<style type="text/css">
	.st0{fill:none;}
	.st1{fill:#3F8CFD;}
	.st2{fill:none;stroke:#FFFFFF;stroke-width:1.5;stroke-linecap:round;stroke-linejoin:round;}
</style>
<rect class="st0" width="48" height="48"/>
<rect class="st1" width="48" height="48"/>
<circle class="st1" cx="24" cy="24" r="24"/>
<g>
	<circle class="st2" cx="24" cy="24" r="13.4"/>
	<circle class="st2" cx="24" cy="24" r="10.2"/>
	<path class="st2" d="M21.2,24.1h4.4c1.3,0,2.4,1.1,2.4,2.4s-1.1,2.4-2.4,2.4H20"/>
	<path class="st2" d="M24.9,24.1c1.4,0,2.5-1.1,2.5-2.5c0-1.4-1.1-2.5-2.5-2.5H20"/>
	<line class="st2" x1="21.2" y1="19.1" x2="21.2" y2="28.9"/>
	<line class="st2" x1="22.5" y1="31" x2="22.5" y2="28.9"/>
	<line class="st2" x1="24.5" y1="31" x2="24.5" y2="28.9"/>
	<line class="st2" x1="22.5" y1="19.1" x2="22.5" y2="17"/>
	<line class="st2" x1="24.5" y1="19.1" x2="24.5" y2="17"/>
</g>
</svg>
