   <svg
            viewBox="0 0 89 41"
            fill="#9E9FA5"
            xmlns="http://www.w3.org/2000/svg"
          >
            <path
              d="M24.0722 40.7325C28.0219 40.7325 30.7193 37.5884 30.7193 33.9977V33.954C30.7193 30.3633 28.0657 27.263 24.0722 27.263C20.0786 27.263 17.425 30.4071 17.425 33.9977V34.0415C17.425 37.6322 20.1224 40.7325 24.0722 40.7325ZM24.1247 39.3838C21.1646 39.3838 19.0014 36.9579 19.0014 33.9977V33.954C19.0014 30.9938 21.112 28.6117 24.1247 28.6117C27.1374 28.6117 29.248 31.0376 29.248 33.9977V34.0415C29.1955 37.0104 27.0848 39.3838 24.1247 39.3838ZM33.4605 40.5135H34.8968V29.8203L43.2955 40.5135H44.4603V27.4819H43.024V37.9475L34.8092 27.4819H33.4167V40.5048H33.4605V40.5135ZM48.016 40.5135H56.8176V39.1649H49.4961V27.4819H48.016V40.5135ZM59.1034 40.5135H60.5834V27.4819H59.1034V40.5135ZM64.1391 40.5135H65.5754V29.8203L73.9741 40.5135H75.1389V27.4819H73.7026V37.9475L65.4878 27.4819H64.0953V40.5048H64.1391V40.5135ZM78.6858 40.5135H88.3894V39.1649H80.1746V34.6283H87.4524V33.2796H80.1746V28.8306H88.3019V27.4819H78.6858V40.5135Z"
              fill="#9E9FA5"
            />
            <path
              d="M0.811462 25.6428H9.38534C14.2372 25.6428 17.0221 23.4884 17.0221 19.9415V19.8101C17.0221 17.1127 15.4545 15.764 13.2475 14.9145C14.9553 14.1526 16.304 12.7601 16.304 10.378V10.2466C16.304 8.76656 15.8136 7.64556 14.9553 6.83108C13.7467 5.56996 11.855 4.99195 9.38534 4.99195H0.855254V25.6516M11.0493 11.4114C11.0493 12.6725 10.1035 13.3469 8.49206 13.3469H5.97856V9.4847H8.57963C10.1998 9.47594 11.0493 10.1503 11.0493 11.4114ZM11.7237 19.2234C11.7237 20.5283 10.7341 21.2464 9.12262 21.2464H6.02235V17.2003H9.12262C10.7778 17.2003 11.7237 18.006 11.7237 19.2234ZM28.3898 3.77461H32.795V0H28.3898V3.77461ZM22.5045 3.77461H26.9097V0H22.5045V3.77461ZM27.6278 26.0457C33.154 26.0457 37.1914 21.7369 37.1914 15.5801V15.1335C37.1914 8.93296 33.2416 4.7117 27.6716 4.7117C22.1017 4.7117 18.1081 9.02053 18.1081 15.1773V15.6239C18.0994 21.7806 22.1017 26.0457 27.6278 26.0457ZM27.6716 21.2464C25.2457 21.2464 23.538 19.092 23.538 15.5013V15.186C23.538 11.6391 25.2019 9.4847 27.6716 9.4847C30.1413 9.4847 31.8053 11.6391 31.8053 15.2298V15.5451C31.8053 19.0832 30.1413 21.2464 27.6716 21.2464ZM39.302 25.6428H44.5567V19.2672H46.4396L49.9427 25.6428H55.9155L51.6943 18.19C53.8487 17.1127 55.3813 15.1773 55.3813 12.1296V11.9982C55.3813 9.93135 54.7508 8.31115 53.586 7.19015C52.2811 5.84145 50.1704 5.12331 47.3854 5.12331H39.302V25.6428ZM44.5567 15.0459V9.65985H47.1577C48.9093 9.65985 50.0303 10.5619 50.0303 12.3135V12.3573C50.0303 14.0212 48.9531 15.0547 47.1577 15.0547H44.5567V15.0459ZM64.4982 25.9581C68.9034 25.9581 71.9949 23.4884 71.9949 19.4949V19.4511C71.9949 15.948 69.569 14.3803 65.663 13.1192C63.0619 12.1296 62.3876 11.6829 62.3876 10.7809V10.7371C62.3876 9.97513 63.0619 9.38836 64.2705 9.38836C65.9345 9.38836 67.6422 10.1941 69.0785 11.2713L71.7759 7.32152C69.6215 5.56996 67.1956 4.80803 64.4106 4.80803C59.9179 4.80803 57.0453 7.4091 57.0453 11.1399V11.2275C57.0453 14.9583 59.7865 16.3946 63.6487 17.6908C66.0746 18.5403 66.6614 19.0395 66.6614 19.8452V19.889C66.6614 20.791 65.9432 21.369 64.5069 21.369C62.4839 21.369 60.601 20.4232 58.937 19.0307L56.1082 22.8929C58.5254 25.0123 61.4417 25.9581 64.4982 25.9581ZM74.0617 25.6428H88.3457V21.0187H79.2726V17.4718H87.3123V13.0666H79.2726V9.69489H88.2143V5.07077H74.0179V25.6428H74.0617Z"
              fill="#9E9FA5"
            />
            <path
              d="M10.0159 33.954L0.898987 27.482V40.5574L10.0159 33.954Z"
              fill="#9E9FA5"
            />
          </svg>