  <svg
            viewBox="0 0 88 24"
            fill="#9E9FA5"
            xmlns="http://www.w3.org/2000/svg"
          >
            <path
              d="M76.1969 6.20515H69.7863V1.42339H87.9674V6.20515H81.5742V23.3091H76.1969V6.20515ZM58.0683 1.43215H63.4456V18.5361H72.7989V23.3179H58.0683V1.43215ZM54.2324 20.5504L54.1623 20.6117C51.8065 22.7749 48.9514 23.7821 45.1768 23.7821C38.5209 23.7821 34.0457 19.2192 34.0457 12.4319C34.0457 5.64465 38.3983 0.95047 44.8878 0.95047C51.3773 0.95047 55.2833 5.5308 55.3096 12.3444C55.3096 13.0187 55.2658 13.8157 55.1957 14.3061H39.8521L39.9046 14.5601C40.5615 17.4764 42.5057 19.0178 45.5096 19.0178C47.4626 19.0178 49.3193 18.3259 50.8781 17.0123L50.9482 16.951L54.2324 20.5504ZM49.6608 10.3388L49.6083 10.0849C48.9952 7.2736 47.3487 5.78477 44.844 5.78477C42.3393 5.78477 40.5264 7.2736 39.9221 10.0849L39.8696 10.3301H49.6608V10.3388ZM24.4471 17.1699L20.1558 1.42339H14.3581L10.0668 17.1349L5.97689 1.42339H0.389404L6.57241 23.3091H13.062L17.2219 9.15653L21.3819 23.3091H27.8714L34.0457 1.42339H28.537L24.4471 17.1699Z"
              fill="#9E9FA5"
            />
          </svg>