 <svg
            viewBox="0 0 98 31"
            fill="#9E9FA5"
            xmlns="http://www.w3.org/2000/svg"
          >
            <path
              d="M10.9526 18.6329H8.9296V30.2107H10.9526V18.6329Z"
              fill="#9E9FA5"
            />
            <path
              fill-rule="evenodd"
              clip-rule="evenodd"
              d="M16.7328 30.1844H18.677V22.6527L26.848 30.3596V18.6066H24.9125V26.007L16.7328 18.4315V30.1844Z"
              fill="#9E9FA5"
            />
            <path
              fill-rule="evenodd"
              clip-rule="evenodd"
              d="M32.0414 27.3119C33.1098 28.1701 34.441 28.6431 35.816 28.6518C37.1822 28.6518 38.128 28.1789 38.128 27.1455C38.128 26.2434 37.5238 25.8843 36.4553 25.4902L34.7388 24.886C33.1536 24.3167 31.945 23.4935 31.945 21.5843C31.945 19.5437 33.7754 18.4402 35.9561 18.4402C37.2961 18.4402 38.5134 18.7818 39.468 19.3773V21.4004C38.4784 20.6559 37.3924 20.1567 35.9999 20.1567C34.8001 20.1567 33.9068 20.6034 33.9068 21.5492C33.9068 22.3987 34.4673 22.7403 35.4569 23.0819L37.3749 23.7562C39.2315 24.413 40.081 25.4377 40.081 27.1104C40.081 29.2211 38.2331 30.3859 35.816 30.3859C34.2221 30.3859 32.8734 29.9392 32.0414 29.37V27.3119Z"
              fill="#9E9FA5"
            />
            <path
              d="M47.315 18.6329H45.3008V30.2107H47.315V18.6329Z"
              fill="#9E9FA5"
            />
            <path
              fill-rule="evenodd"
              clip-rule="evenodd"
              d="M53.2178 18.6329H57.7719C61.2837 18.6329 63.552 20.8924 63.552 24.4131C63.552 27.9337 61.2837 30.202 57.7719 30.202H53.2178V18.6329ZM57.7018 28.4504C60.1978 28.4504 61.529 26.8828 61.529 24.4131C61.529 21.9434 60.1978 20.3582 57.7018 20.3582H55.2321V28.4504H57.7018Z"
              fill="#9E9FA5"
            />
            <path
              fill-rule="evenodd"
              clip-rule="evenodd"
              d="M75.0247 18.6329V20.3582H69.7963V23.1432H74.4905V24.8597H69.7963V28.4504H75.0247V30.202H67.817V18.6329H75.0247Z"
              fill="#9E9FA5"
            />
            <path
              fill-rule="evenodd"
              clip-rule="evenodd"
              d="M83.0732 25.5078V30.202H81.0589V18.6329H85.3677C87.8286 18.6329 89.4138 19.8328 89.4138 22.101C89.4138 24.0365 88.5293 25.1487 86.6551 25.4377L90.9289 30.202H88.6431L84.5007 25.5078H83.0732ZM83.0732 23.8701H85.3327C86.6726 23.8701 87.4258 23.1695 87.4258 22.101C87.4258 21.0326 86.6726 20.3319 85.3327 20.3319H83.0732V23.8701Z"
              fill="#9E9FA5"
            />
            <path
              fill-rule="evenodd"
              clip-rule="evenodd"
              d="M89.1423 11.3552C89.983 11.9244 91.3405 12.3798 92.9432 12.3798C95.3779 12.3798 97.2258 11.2063 97.2258 9.07815C97.2258 7.38789 96.3675 6.36323 94.5021 5.69763L92.5666 5.01453C91.577 4.67297 91.0077 4.33142 91.0077 3.48191C91.0077 2.53607 91.901 2.08066 93.1096 2.08066C94.5108 2.08066 95.6056 2.59737 96.5952 3.33303V1.30998C95.6406 0.705688 94.4145 0.364134 93.0658 0.364134C90.8676 0.364134 89.0285 1.47637 89.0285 3.53446C89.0285 5.45242 90.237 6.28441 91.8309 6.85366L93.565 7.45795C94.6334 7.86081 95.2377 8.21988 95.2377 9.13069C95.2377 10.1729 94.2831 10.6458 92.9169 10.6458C91.5332 10.637 90.1932 10.1641 89.116 9.29709L89.1423 11.3552ZM76.8989 11.3552C77.7396 11.9244 79.0971 12.3798 80.6998 12.3798C83.1345 12.3798 84.9823 11.2063 84.9823 9.07815C84.9823 7.38789 84.1241 6.36323 82.2587 5.69763L80.3232 5.01453C79.3336 4.67297 78.7643 4.33142 78.7643 3.48191C78.7643 2.53607 79.6576 2.08066 80.8662 2.08066C82.2674 2.08066 83.3622 2.59737 84.3518 3.33303V1.30998C83.3972 0.705688 82.1711 0.364134 80.8224 0.364134C78.6242 0.364134 76.785 1.47637 76.785 3.53446C76.785 5.45242 77.9936 6.28441 79.5875 6.85366L81.3216 7.45795C82.39 7.86081 82.9943 8.21988 82.9943 9.13069C82.9943 10.1729 82.0397 10.6458 80.6735 10.6458C79.2898 10.637 77.9498 10.1641 76.8726 9.29709L76.8989 11.3552ZM72.1784 0.556806V2.29961H66.915V5.1021H71.6355V6.82739H66.915V10.4356H72.1784V12.2047H64.927V0.565564H72.1784V0.556806ZM49.3469 12.1784H51.2999V4.60291L59.5234 12.3623V0.530532H57.5792V7.97466L49.3556 0.346619V12.1784H49.3469ZM43.558 0.548048H41.5349V12.1872H43.558V0.548048ZM28.2318 11.3639C29.0726 11.9332 30.43 12.3886 32.0327 12.3886C34.4674 12.3886 36.3153 11.215 36.3153 9.0869C36.3153 7.39665 35.457 6.37199 33.5916 5.71515L31.6561 5.02328C30.6665 4.68173 30.0972 4.34018 30.0972 3.49067C30.0972 2.54483 30.9905 2.08942 32.1991 2.08942C33.6003 2.08942 34.6951 2.59737 35.6847 3.34179V1.31873C34.7301 0.714446 33.504 0.372892 32.1553 0.372892C29.9571 0.372892 28.118 1.48513 28.118 3.54322C28.118 5.46117 29.3265 6.29316 30.9205 6.86242L32.6545 7.46671C33.7229 7.86957 34.3272 8.22864 34.3272 9.13945C34.3272 10.1816 33.3726 10.6545 32.0064 10.6545C30.6227 10.6458 29.2827 10.1729 28.2055 9.30585L28.2318 11.3639ZM18.6683 12.3886C21.5321 12.3886 23.4588 10.7596 23.4588 7.5718V0.556806H21.4358V7.3441C21.4358 9.57734 20.4636 10.6283 18.6683 10.6283C16.8729 10.6283 15.9008 9.5861 15.9008 7.3441V0.556806H13.8778V7.55429C13.869 10.7509 15.822 12.3886 18.6683 12.3886ZM2.86046 7.07261H5.43525C6.80147 7.07261 7.53712 7.72069 7.53712 8.78038C7.53712 9.84007 6.79271 10.4882 5.43525 10.4882H2.86046V7.07261ZM2.86046 5.44366V2.25582H5.05867C6.4424 2.25582 7.17805 2.72874 7.17805 3.83222C7.17805 4.93571 6.43364 5.44366 5.05867 5.44366H2.86046ZM7.57215 6.18807C8.44794 5.88155 9.13104 4.97074 9.13104 3.71837C9.13104 1.63401 7.57215 0.548048 5.07618 0.548048H0.889954V12.1872H5.47028C7.96626 12.1872 9.52514 11.0311 9.52514 8.84169C9.51639 7.63311 8.72818 6.5559 7.57215 6.18807Z"
              fill="#9E9FA5"
            />
          </svg>